CodaCaption-ExtraBold.ufo
<glyph name="asterisk" format="1">
  <advance width="1313"/>
  <unicode hex="002A"/>
  <outline>
    <contour>
      <point x="453" y="490" type="curve" smooth="yes"/>
      <point x="562" y="490"/>
      <point x="583" y="647"/>
      <point x="654" y="902" type="curve"/>
      <point x="689" y="766"/>
      <point x="726" y="605"/>
      <point x="771" y="540" type="curve" smooth="yes"/>
      <point x="794.304" y="504.045"/>
      <point x="826.253" y="489.259"/>
      <point x="858.509" y="489.259" type="curve" smooth="yes"/>
      <point x="923.14" y="489.259"/>
      <point x="989" y="548.625"/>
      <point x="989" y="616" type="curve" smooth="yes"/>
      <point x="989" y="675"/>
      <point x="879" y="785"/>
      <point x="726" y="940" type="curve"/>
      <point x="839" y="909"/>
      <point x="994" y="858"/>
      <point x="1068" y="858" type="curve" smooth="yes"/>
      <point x="1147" y="858"/>
      <point x="1184" y="913"/>
      <point x="1184" y="980" type="curve" smooth="yes"/>
      <point x="1184" y="1049"/>
      <point x="1145" y="1105"/>
      <point x="1070" y="1105" type="curve" smooth="yes"/>
      <point x="995" y="1105"/>
      <point x="880" y="1066"/>
      <point x="726" y="1021" type="curve"/>
      <point x="897" y="1195"/>
      <point x="984" y="1285"/>
      <point x="984" y="1352" type="curve" smooth="yes"/>
      <point x="984" y="1415.14"/>
      <point x="917.064" y="1466.7"/>
      <point x="857.456" y="1466.7" type="curve" smooth="yes"/>
      <point x="833.04" y="1466.7"/>
      <point x="809.854" y="1458.05"/>
      <point x="793" y="1438" type="curve"/>
      <point x="717" y="1401"/>
      <point x="680" y="1155"/>
      <point x="654" y="1056" type="curve"/>
      <point x="615" y="1216"/>
      <point x="574" y="1401"/>
      <point x="512" y="1438" type="curve"/>
      <point x="493.26" y="1458.47"/>
      <point x="469.201" y="1467.3"/>
      <point x="444.447" y="1467.3" type="curve" smooth="yes"/>
      <point x="383.34" y="1467.3"/>
      <point x="318" y="1413.48"/>
      <point x="318" y="1348" type="curve" smooth="yes"/>
      <point x="318" y="1288"/>
      <point x="424" y="1181"/>
      <point x="582" y="1021" type="curve"/>
      <point x="473" y="1051"/>
      <point x="312" y="1105"/>
      <point x="237" y="1105" type="curve" smooth="yes"/>
      <point x="161" y="1105"/>
      <point x="123" y="1049"/>
      <point x="123" y="980" type="curve" smooth="yes"/>
      <point x="123" y="913"/>
      <point x="160" y="858"/>
      <point x="237" y="858" type="curve" smooth="yes"/>
      <point x="309" y="858"/>
      <point x="450" y="902"/>
      <point x="582" y="940" type="curve"/>
      <point x="441" y="798"/>
      <point x="323" y="690"/>
      <point x="323" y="609" type="curve" smooth="yes"/>
      <point x="323" y="548"/>
      <point x="391" y="490"/>
    </contour>
  </outline>
</glyph>
<glyph name="plus" format="1">
  <advance width="1312"/>
  <unicode hex="002B"/>
  <outline>
    <contour>
      <point x="506" y="152" type="line"/>
      <point x="803" y="152" type="line"/>
      <point x="803" y="523" type="line"/>
      <point x="1144" y="523" type="line"/>
      <point x="1144" y="787" type="line"/>
      <point x="803" y="787" type="line"/>
      <point x="803" y="1161" type="line"/>
      <point x="506" y="1161" type="line"/>
      <point x="506" y="787" type="line"/>
      <point x="166" y="787" type="line"/>
      <point x="166" y="523" type="line"/>
      <point x="506" y="523" type="line"/>
    </contour>
  </outline>
</glyph>
<glyph name="slash" format="1">
  <advance width="1028"/>
  <unicode hex="002F"/>
  <outline>
    <contour>
      <point x="178" y="-11" type="line"/>
      <point x="501" y="-11" type="line"/>
      <point x="863" y="1562" type="line"/>
      <point x="536" y="1562" type="line"/>
    </contour>
  </outline>
</glyph>
<glyph name="six" format="1">
  <advance width="1430"/>
  <unicode hex="0036"/>
  <outline>
    <contour>
      <point x="739" y="196" type="curve" smooth="yes"/>
      <point x="616" y="196"/>
      <point x="558" y="229"/>
      <point x="557" y="300" type="curve" smooth="yes"/>
      <point x="556" y="675" type="line" smooth="yes"/>
      <point x="556" y="752"/>
      <point x="606" y="789"/>
      <point x="740" y="789" type="curve" smooth="yes"/>
      <point x="867" y="789"/>
      <point x="928" y="770"/>
      <point x="928" y="678" type="curve" smooth="yes"/>
      <point x="928" y="285" type="line" smooth="yes"/>
      <point x="928" y="219"/>
      <point x="863" y="196"/>
    </contour>
    <contour>
      <point x="750" y="-21" type="curve" smooth="yes"/>
      <point x="1178" y="-19"/>
      <point x="1333" y="80"/>
      <point x="1333" y="507" type="curve" smooth="yes"/>
      <point x="1333" y="905"/>
      <point x="1184" y="1010"/>
      <point x="765" y="1010" type="curve" smooth="yes"/>
      <point x="685" y="1010"/>
      <point x="581" y="995"/>
      <point x="558" y="966" type="curve"/>
      <point x="559" y="1271" type="line" smooth="yes"/>
      <point x="559" y="1341"/>
      <point x="632" y="1362"/>
      <point x="732" y="1362" type="curve" smooth="yes"/>
      <point x="782" y="1362"/>
      <point x="878" y="1361"/>
      <point x="890" y="1349" type="curve" smooth="yes"/>
      <point x="903" y="1337"/>
      <point x="903" y="1184"/>
      <point x="903" y="1143" type="curve"/>
      <point x="1282" y="1158" type="line"/>
      <point x="1283" y="1247" type="line" smooth="yes"/>
      <point x="1286" y="1549"/>
      <point x="1017" y="1572"/>
      <point x="732" y="1572" type="curve" smooth="yes"/>
      <point x="265" y="1572"/>
      <point x="159" y="1420"/>
      <point x="159" y="941" type="curve" smooth="yes"/>
      <point x="159" y="554" type="line" smooth="yes"/>
      <point x="159" y="100"/>
      <point x="291" y="-21"/>
    </contour>
  </outline>
</glyph>
<glyph name="seven" format="1">
  <advance width="1430"/>
  <unicode hex="0037"/>
  <outline>
    <contour>
      <point x="393" y="0" type="line"/>
      <point x="832" y="0" type="line"/>
      <point x="1283" y="1308" type="line"/>
      <point x="1283" y="1551" type="line"/>
      <point x="179" y="1551" type="line"/>
      <point x="179" y="1316" type="line"/>
      <point x="845" y="1316" type="line"/>
    </contour>
  </outline>
</glyph>
<glyph name="greater" format="1">
  <advance width="1208"/>
  <unicode hex="003E"/>
  <outline>
    <contour>
      <point x="220" y="98" type="line"/>
      <point x="1022" y="523" type="line"/>
      <point x="1022" y="946" type="line"/>
      <point x="220" y="1377" type="line"/>
      <point x="220" y="985" type="line"/>
      <point x="787" y="740" type="line"/>
      <point x="220" y="486" type="line"/>
    </contour>
  </outline>
</glyph>
<glyph name="A" format="1">
  <advance width="1553"/>
  <unicode hex="0041"/>
  <outline>
    <contour>
      <point x="776" y="0" type="move" name="bot"/>
    </contour>
    <contour>
      <point x="1226" y="0" type="move" name="ogonek"/>
    </contour>
    <contour>
      <point x="776" y="1551" type="move" name="top"/>
    </contour>
    <contour>
      <point x="924" y="555" type="line"/>
      <point x="623" y="555" type="line"/>
      <point x="767" y="1310" type="line"/>
      <point x="779" y="1310" type="line"/>
    </contour>
    <contour>
      <point x="457" y="1551" type="line"/>
      <point x="93" y="0" type="line"/>
      <point x="515" y="0" type="line"/>
      <point x="595" y="372" type="line"/>
      <point x="953" y="372" type="line"/>
      <point x="1033" y="0" type="line"/>
      <point x="1460" y="0" type="line"/>
      <point x="1097" y="1551" type="line"/>
    </contour>
  </outline>
</glyph>
<glyph name="G" format="1">
  <advance width="1564"/>
  <unicode hex="0047"/>
  <outline>
    <contour>
      <point x="789" y="0" type="move" name="bot"/>
    </contour>
    <contour>
      <point x="789" y="1551" type="move" name="top"/>
    </contour>
    <contour>
      <point x="173" y="1208" type="curve"/>
      <point x="162" y="1160"/>
      <point x="160" y="856"/>
      <point x="160" y="773" type="curve" smooth="yes"/>
      <point x="160" y="696"/>
      <point x="161" y="388"/>
      <point x="168" y="341" type="curve"/>
      <point x="185" y="31"/>
      <point x="365" y="-21"/>
      <point x="811" y="-21" type="curve" smooth="yes"/>
      <point x="1026" y="-21"/>
      <point x="1317" y="13"/>
      <point x="1425" y="108" type="curve"/>
      <point x="1425" y="759" type="line"/>
      <point x="837" y="759" type="line"/>
      <point x="845" y="597" type="line"/>
      <point x="1062" y="597" type="line"/>
      <point x="1062" y="216" type="line"/>
      <point x="1051" y="203"/>
      <point x="914" y="197"/>
      <point x="820" y="197" type="curve" smooth="yes"/>
      <point x="684" y="197"/>
      <point x="603" y="212"/>
      <point x="599" y="290" type="curve" smooth="yes"/>
      <point x="597" y="347"/>
      <point x="596" y="726"/>
      <point x="596" y="787" type="curve" smooth="yes"/>
      <point x="596" y="845"/>
      <point x="596" y="1218"/>
      <point x="599" y="1275" type="curve" smooth="yes"/>
      <point x="603" y="1329"/>
      <point x="677" y="1346"/>
      <point x="790" y="1346" type="curve" smooth="yes"/>
      <point x="894" y="1346"/>
      <point x="982" y="1341"/>
      <point x="983" y="1304" type="curve" smooth="yes"/>
      <point x="988" y="1001" type="line"/>
      <point x="1414" y="1027" type="line"/>
      <point x="1414" y="1034"/>
      <point x="1415" y="1173"/>
      <point x="1415" y="1180" type="curve" smooth="yes"/>
      <point x="1415" y="1544"/>
      <point x="1069" y="1572"/>
      <point x="802" y="1572" type="curve" smooth="yes"/>
      <point x="478" y="1572"/>
      <point x="195" y="1521"/>
    </contour>
  </outline>
</glyph>
<glyph name="H" format="1">
  <advance width="1635"/>
  <unicode hex="0048"/>
  <outline>
    <contour>
      <point x="820" y="776" type="move" name="center"/>
    </contour>
    <contour>
      <point x="818" y="0" type="move" name="bot"/>
    </contour>
    <contour>
      <point x="818" y="1551" type="move" name="top"/>
    </contour>
    <contour>
      <point x="1013" y="1551" type="line"/>
      <point x="1013" y="880" type="line"/>
      <point x="622" y="880" type="line"/>
      <point x="622" y="1551" type="line"/>
      <point x="186" y="1551" type="line"/>
      <point x="186" y="0" type="line"/>
      <point x="622" y="0" type="line"/>
      <point x="622" y="686" type="line"/>
      <point x="1013" y="686" type="line"/>
      <point x="1013" y="0" type="line"/>
      <point x="1449" y="0" type="line"/>
      <point x="1449" y="1551" type="line"/>
    </contour>
  </outline>
</glyph>
<glyph name="J" format="1">
  <advance width="957"/>
  <unicode hex="004A"/>
  <outline>
    <contour>
      <point x="476" y="0" type="move" name="bot"/>
    </contour>
    <contour>
      <point x="562" y="1551" type="move" name="top"/>
    </contour>
    <contour>
      <point x="346" y="-99" type="curve" smooth="yes"/>
      <point x="597" y="-99"/>
      <point x="782" y="-11"/>
      <point x="782" y="293" type="curve" smooth="yes"/>
      <point x="782" y="1551" type="line"/>
      <point x="347" y="1551" type="line"/>
      <point x="347" y="292" type="line" smooth="yes"/>
      <point x="347" y="236"/>
      <point x="345" y="146"/>
      <point x="292" y="140" type="curve" smooth="yes"/>
      <point x="276" y="138"/>
      <point x="135" y="137"/>
      <point x="107" y="137" type="curve"/>
      <point x="127" y="-81" type="line"/>
      <point x="178" y="-90"/>
      <point x="269" y="-99"/>
    </contour>
  </outline>
</glyph>
<glyph name="K" format="1">
  <advance width="1583"/>
  <unicode hex="004B"/>
  <outline>
    <contour>
      <point x="805" y="0" type="move" name="bot"/>
    </contour>
    <contour>
      <point x="805" y="1551" type="move" name="top"/>
    </contour>
    <contour>
      <point x="1035" y="1551" type="line"/>
      <point x="896.704" y="1299.96"/>
      <point x="756.943" y="1050.39"/>
      <point x="620" y="798" type="curve"/>
      <point x="622" y="980" type="line"/>
      <point x="622" y="1551" type="line"/>
      <point x="186" y="1551" type="line"/>
      <point x="186" y="0" type="line"/>
      <point x="622" y="0" type="line"/>
      <point x="622" y="575" type="line"/>
      <point x="689" y="690" type="line"/>
      <point x="1072" y="0" type="line"/>
      <point x="1551" y="0" type="line"/>
      <point x="1066" y="815" type="line"/>
      <point x="1495" y="1551" type="line"/>
    </contour>
  </outline>
</glyph>
<glyph name="L" format="1">
  <advance width="1150"/>
  <unicode hex="004C"/>
  <outline>
    <contour>
      <point x="593" y="0" type="move" name="bot"/>
    </contour>
    <contour>
      <point x="470" y="1215" type="move" name="caron.alt"/>
    </contour>
    <contour>
      <point x="493" y="1551" type="move" name="top"/>
    </contour>
    <contour>
      <point x="186" y="1551" type="line"/>
      <point x="186" y="0" type="line"/>
      <point x="1052" y="0" type="line"/>
      <point x="1061" y="204" type="line"/>
      <point x="622" y="204" type="line"/>
      <point x="622" y="1551" type="line"/>
    </contour>
  </outline>
</glyph>
<glyph name="O" format="1">
  <advance width="1606"/>
  <unicode hex="004F"/>
  <outline>
    <contour>
      <point x="803" y="0" type="move" name="bot"/>
    </contour>
    <contour>
      <point x="919" y="0" type="move" name="ogonek"/>
    </contour>
    <contour>
      <point x="803" y="1551" type="move" name="top"/>
    </contour>
    <contour>
      <point x="801" y="-21" type="curve" smooth="yes"/>
      <point x="1186" y="-21"/>
      <point x="1447" y="58"/>
      <point x="1447" y="511" type="curve" smooth="yes"/>
      <point x="1447" y="1040" type="line" smooth="yes"/>
      <point x="1447" y="1492"/>
      <point x="1169" y="1572"/>
      <point x="801" y="1572" type="curve" smooth="yes"/>
      <point x="417" y="1572"/>
      <point x="160" y="1489"/>
      <point x="160" y="1040" type="curve" smooth="yes"/>
      <point x="160" y="511" type="line" smooth="yes"/>
      <point x="160" y="57"/>
      <point x="406" y="-21"/>
    </contour>
    <contour>
      <point x="804" y="202" type="curve" smooth="yes"/>
      <point x="664" y="202"/>
      <point x="600" y="222"/>
      <point x="598" y="313" type="curve" smooth="yes"/>
      <point x="596" y="351"/>
      <point x="596" y="707"/>
      <point x="596" y="775" type="curve" smooth="yes"/>
      <point x="596" y="845"/>
      <point x="596" y="1200"/>
      <point x="598" y="1239" type="curve" smooth="yes"/>
      <point x="600" y="1329"/>
      <point x="664" y="1349"/>
      <point x="804" y="1349" type="curve" smooth="yes"/>
      <point x="944" y="1349"/>
      <point x="1007" y="1329"/>
      <point x="1009" y="1239" type="curve" smooth="yes"/>
      <point x="1011" y="1200"/>
      <point x="1011" y="845"/>
      <point x="1011" y="775" type="curve" smooth="yes"/>
      <point x="1011" y="707"/>
      <point x="1011" y="351"/>
      <point x="1009" y="313" type="curve" smooth="yes"/>
      <point x="1007" y="222"/>
      <point x="944" y="202"/>
    </contour>
  </outline>
</glyph>
<glyph name="X" format="1">
  <advance width="1477"/>
  <unicode hex="0058"/>
  <outline>
    <contour>
      <point x="979" y="743" type="line"/>
      <point x="1439" y="1551" type="line"/>
      <point x="1028" y="1551" type="line"/>
      <point x="765" y="1092" type="line"/>
      <point x="483" y="1551" type="line"/>
      <point x="76" y="1551" type="line"/>
      <point x="515" y="833" type="line"/>
      <point x="23" y="0" type="line"/>
      <point x="433" y="0" type="line"/>
      <point x="725" y="490" type="line"/>
      <point x="1025" y="0" type="line"/>
      <point x="1436" y="0" type="line"/>
    </contour>
  </outline>
</glyph>
<glyph name="Z" format="1">
  <advance width="1212"/>
  <unicode hex="005A"/>
  <outline>
    <contour>
      <point x="609" y="0" type="move" name="bot"/>
    </contour>
    <contour>
      <point x="609" y="1551" type="move" name="top"/>
    </contour>
    <contour>
      <point x="152" y="1551" type="line"/>
      <point x="168" y="1318" type="line"/>
      <point x="651" y="1318" type="line"/>
      <point x="151" y="228" type="line"/>
      <point x="155" y="0" type="line"/>
      <point x="1095" y="0" type="line"/>
      <point x="1101" y="234" type="line"/>
      <point x="595" y="234" type="line"/>
      <point x="1074" y="1329" type="line"/>
      <point x="1074" y="1551" type="line"/>
    </contour>
  </outline>
</glyph>
<glyph name="bracketleft" format="1">
  <advance width="1066"/>
  <unicode hex="005B"/>
  <outline>
    <contour>
      <point x="224" y="1743" type="line"/>
      <point x="224" y="-299" type="line"/>
      <point x="976" y="-299" type="line"/>
      <point x="976" y="-95" type="line"/>
      <point x="672" y="-95" type="line"/>
      <point x="672" y="1540" type="line"/>
      <point x="976" y="1540" type="line"/>
      <point x="976" y="1743" type="line"/>
    </contour>
  </outline>
</glyph>
<glyph name="backslash" format="1">
  <advance width="1044"/>
  <unicode hex="005C"/>
  <outline>
    <contour>
      <point x="162" y="1562" type="line"/>
      <point x="514" y="-11" type="line"/>
      <point x="868" y="-11" type="line"/>
      <point x="520" y="1562" type="line"/>
    </contour>
  </outline>
</glyph>
<glyph name="bracketright" format="1">
  <advance width="1243"/>
  <unicode hex="005D"/>
  <outline>
    <contour>
      <point x="270" y="1743" type="line"/>
      <point x="270" y="1540" type="line"/>
      <point x="575" y="1540" type="line"/>
      <point x="575" y="-95" type="line"/>
      <point x="270" y="-95" type="line"/>
      <point x="270" y="-299" type="line"/>
      <point x="1023" y="-299" type="line"/>
      <point x="1023" y="1743" type="line"/>
    </contour>
  </outline>
</glyph>
<glyph name="t" format="1">
  <advance width="993"/>
  <unicode hex="0074"/>
  <outline>
    <contour>
      <point x="478" y="719" type="move" name="mid"/>
    </contour>
    <contour>
      <point x="531" y="0" type="move" name="bot"/>
    </contour>
    <contour>
      <point x="466" y="1282" type="move" name="caron.alt"/>
    </contour>
    <contour>
      <point x="469" y="1450" type="move" name="top"/>
    </contour>
    <contour>
      <point x="251" y="1532" type="line"/>
      <point x="251" y="1215" type="line"/>
      <point x="101" y="1215" type="line"/>
      <point x="101" y="1052" type="line"/>
      <point x="251" y="1052" type="line"/>
      <point x="251" y="314" type="line" smooth="yes"/>
      <point x="251" y="45"/>
      <point x="383" y="-14"/>
      <point x="685" y="-15" type="curve" smooth="yes"/>
      <point x="775" y="-15"/>
      <point x="861" y="-2"/>
      <point x="893" y="1" type="curve"/>
      <point x="894" y="194" type="line"/>
      <point x="868.769" y="192.125"/>
      <point x="845.485" y="191.063"/>
      <point x="824.218" y="191.063" type="curve" smooth="yes"/>
      <point x="720.736" y="191.063"/>
      <point x="665" y="216.196"/>
      <point x="665" y="295" type="curve" smooth="yes"/>
      <point x="665" y="1052" type="line"/>
      <point x="850" y="1052" type="line"/>
      <point x="850" y="1215" type="line"/>
      <point x="665" y="1215" type="line"/>
      <point x="665" y="1532" type="line"/>
    </contour>
  </outline>
</glyph>
<glyph name="v" format="1">
  <advance width="1319"/>
  <unicode hex="0076"/>
  <outline>
    <contour>
      <point x="844" y="1215" type="line"/>
      <point x="669" y="279" type="line"/>
      <point x="661" y="279" type="line"/>
      <point x="461" y="1215" type="line"/>
      <point x="64" y="1215" type="line"/>
      <point x="380" y="0" type="line"/>
      <point x="931" y="0" type="line"/>
      <point x="1249" y="1215" type="line"/>
    </contour>
  </outline>
</glyph>
<glyph name="y" format="1">
  <advance width="1302"/>
  <unicode hex="0079"/>
  <outline>
    <contour>
      <point x="651" y="0" type="move" name="bot"/>
    </contour>
    <contour>
      <point x="654" y="1215" type="move" name="top"/>
    </contour>
    <contour>
      <point x="452" y="27" type="line"/>
      <point x="439.311" y="-76.6244"/>
      <point x="438.9" y="-140"/>
      <point x="326" y="-140" type="curve" smooth="yes"/>
      <point x="280" y="-140"/>
      <point x="218" y="-127"/>
      <point x="147" y="-111" type="curve"/>
      <point x="116" y="-346" type="line"/>
      <point x="218" y="-370"/>
      <point x="369" y="-389"/>
      <point x="458" y="-389" type="curve" smooth="yes"/>
      <point x="679" y="-389"/>
      <point x="824" y="-314"/>
      <point x="907" y="-19" type="curve"/>
      <point x="1239" y="1215" type="line"/>
      <point x="850" y="1215" type="line"/>
      <point x="680" y="309" type="line"/>
      <point x="675" y="309" type="line"/>
      <point x="448" y="1215" type="line"/>
      <point x="60" y="1215" type="line"/>
    </contour>
  </outline>
</glyph>
<glyph name="asciitilde" format="1">
  <advance width="1383"/>
  <unicode hex="007E"/>
  <outline>
    <contour>
      <point x="943" y="611" type="curve" smooth="yes"/>
      <point x="956.102" y="609.528"/>
      <point x="968.755" y="608.793"/>
      <point x="980.965" y="608.793" type="curve" smooth="yes"/>
      <point x="1134.63" y="608.793"/>
      <point x="1218.13" y="725.255"/>
      <point x="1245" y="955" type="curve"/>
      <point x="1119" y="998" type="line"/>
      <point x="1080.49" y="910.937"/>
      <point x="1044.08" y="862.418"/>
      <point x="969.3" y="862.418" type="curve" smooth="yes"/>
      <point x="954.752" y="862.418"/>
      <point x="938.751" y="864.254"/>
      <point x="921" y="868" type="curve" smooth="yes"/>
      <point x="790.733" y="897.356"/>
      <point x="663.832" y="1029.38"/>
      <point x="488.57" y="1029.38" type="curve" smooth="yes"/>
      <point x="472.785" y="1029.38"/>
      <point x="456.608" y="1028.31"/>
      <point x="440" y="1026" type="curve" smooth="yes"/>
      <point x="313" y="1008"/>
      <point x="221" y="932"/>
      <point x="175" y="710" type="curve"/>
      <point x="279" y="650" type="line"/>
      <point x="311.56" y="750.394"/>
      <point x="361.299" y="786.164"/>
      <point x="431.916" y="786.164" type="curve" smooth="yes"/>
      <point x="439.376" y="786.164"/>
      <point x="447.069" y="785.764"/>
      <point x="455" y="785" type="curve" smooth="yes"/>
      <point x="613" y="769"/>
      <point x="762" y="631"/>
    </contour>
  </outline>
</glyph>
<glyph name="dieresis" format="1">
  <advance width="1261"/>
  <unicode hex="00A8"/>
  <outline>
    <contour>
      <point x="658" y="1215" type="move" name="_top"/>
    </contour>
    <contour>
      <point x="228" y="1501" type="curve" smooth="yes"/>
      <point x="228" y="1401"/>
      <point x="291" y="1354"/>
      <point x="379" y="1354" type="curve" smooth="yes"/>
      <point x="467" y="1354"/>
      <point x="528" y="1401"/>
      <point x="528" y="1501" type="curve" smooth="yes"/>
      <point x="528" y="1599"/>
      <point x="467" y="1647"/>
      <point x="379" y="1647" type="curve" smooth="yes"/>
      <point x="293" y="1647"/>
      <point x="228" y="1598"/>
    </contour>
    <contour>
      <point x="794" y="1501" type="curve" smooth="yes"/>
      <point x="794" y="1401"/>
      <point x="858" y="1354"/>
      <point x="945" y="1354" type="curve" smooth="yes"/>
      <point x="1034" y="1354"/>
      <point x="1094" y="1401"/>
      <point x="1094" y="1501" type="curve" smooth="yes"/>
      <point x="1094" y="1599"/>
      <point x="1034" y="1647"/>
      <point x="945" y="1647" type="curve" smooth="yes"/>
      <point x="859" y="1647"/>
      <point x="794" y="1598"/>
    </contour>
  </outline>
</glyph>
<glyph name="guillemotleft" format="1">
  <advance width="1682"/>
  <unicode hex="00AB"/>
  <outline>
    <contour>
      <point x="1400" y="216" type="curve" smooth="yes"/>
      <point x="1443" y="216"/>
      <point x="1474" y="253"/>
      <point x="1474" y="295" type="curve" smooth="yes"/>
      <point x="1474" y="316"/>
      <point x="1468" y="338"/>
      <point x="1451" y="358" type="curve" smooth="yes"/>
      <point x="1083" y="779" type="line"/>
      <point x="1451" y="1200" type="line"/>
      <point x="1468" y="1223"/>
      <point x="1475" y="1245"/>
      <point x="1475" y="1263" type="curve" smooth="yes"/>
      <point x="1475" y="1306.77"/>
      <point x="1445.67" y="1341.08"/>
      <point x="1404.49" y="1341.08" type="curve" smooth="yes"/>
      <point x="1403.34" y="1341.08"/>
      <point x="1402.17" y="1341.05"/>
      <point x="1401" y="1341" type="curve" smooth="yes"/>
      <point x="1399.11" y="1341.22"/>
      <point x="1397.17" y="1341.33"/>
      <point x="1395.19" y="1341.33" type="curve" smooth="yes"/>
      <point x="1379.32" y="1341.33"/>
      <point x="1360.56" y="1334.22"/>
      <point x="1341" y="1320" type="curve" smooth="yes"/>
      <point x="825" y="935" type="line" smooth="yes"/>
      <point x="772" y="895"/>
      <point x="744" y="838"/>
      <point x="743" y="778" type="curve" smooth="yes"/>
      <point x="743" y="721"/>
      <point x="770" y="663"/>
      <point x="825" y="622" type="curve" smooth="yes"/>
      <point x="1341" y="238" type="line" smooth="yes"/>
      <point x="1362" y="222"/>
      <point x="1382" y="216"/>
    </contour>
    <contour>
      <point x="738" y="216" type="curve" smooth="yes"/>
      <point x="781" y="216"/>
      <point x="813" y="253"/>
      <point x="813" y="295" type="curve" smooth="yes"/>
      <point x="813" y="316"/>
      <point x="806" y="338"/>
      <point x="789" y="358" type="curve" smooth="yes"/>
      <point x="421" y="779" type="line"/>
      <point x="789" y="1200" type="line"/>
      <point x="806" y="1223"/>
      <point x="814" y="1245"/>
      <point x="814" y="1263" type="curve" smooth="yes"/>
      <point x="814" y="1306.77"/>
      <point x="783.723" y="1341.08"/>
      <point x="742.497" y="1341.08" type="curve" smooth="yes"/>
      <point x="741.34" y="1341.08"/>
      <point x="740.174" y="1341.05"/>
      <point x="739" y="1341" type="curve" smooth="yes"/>
      <point x="737" y="1341.22"/>
      <point x="734.988" y="1341.33"/>
      <point x="732.96" y="1341.33" type="curve" smooth="yes"/>
      <point x="716.741" y="1341.33"/>
      <point x="699.556" y="1334.22"/>
      <point x="680" y="1320" type="curve" smooth="yes"/>
      <point x="163" y="935" type="line" smooth="yes"/>
      <point x="110" y="895"/>
      <point x="82" y="838"/>
      <point x="81" y="778" type="curve" smooth="yes"/>
      <point x="81" y="721"/>
      <point x="108" y="663"/>
      <point x="163" y="622" type="curve" smooth="yes"/>
      <point x="680" y="238" type="line" smooth="yes"/>
      <point x="699" y="223"/>
      <point x="720" y="216"/>
    </contour>
  </outline>
</glyph>
<glyph name="twosuperior" format="1">
  <advance width="1133"/>
  <unicode hex="00B2"/>
  <outline>
    <contour>
      <point x="193" y="495" type="line"/>
      <point x="985" y="495" type="line"/>
      <point x="985" y="670" type="line"/>
      <point x="479" y="670" type="line"/>
      <point x="479" y="763"/>
      <point x="527" y="819"/>
      <point x="660" y="866" type="curve"/>
      <point x="828" y="932"/>
      <point x="1017" y="995"/>
      <point x="1017" y="1237" type="curve" smooth="yes"/>
      <point x="1017" y="1503"/>
      <point x="867" y="1570"/>
      <point x="605" y="1570" type="curve" smooth="yes"/>
      <point x="364.709" y="1570"/>
      <point x="189.933" y="1510.35"/>
      <point x="189.933" y="1247.95" type="curve" smooth="yes"/>
      <point x="189.933" y="1245"/>
      <point x="189.955" y="1242.01"/>
      <point x="190" y="1239" type="curve" smooth="yes"/>
      <point x="190" y="1197" type="line"/>
      <point x="483" y="1206" type="line"/>
      <point x="483" y="1343" type="line" smooth="yes"/>
      <point x="483" y="1375"/>
      <point x="518" y="1401"/>
      <point x="604" y="1401" type="curve" smooth="yes"/>
      <point x="683" y="1401"/>
      <point x="723" y="1383"/>
      <point x="723" y="1351" type="curve" smooth="yes"/>
      <point x="723" y="1232" type="line" smooth="yes"/>
      <point x="723" y="1161"/>
      <point x="653" y="1135"/>
      <point x="541" y="1098" type="curve" smooth="yes"/>
      <point x="309" y="1019"/>
      <point x="193" y="915"/>
      <point x="193" y="653" type="curve" smooth="yes"/>
    </contour>
  </outline>
</glyph>
<glyph name="ordmasculine" format="1">
  <advance width="1241"/>
  <unicode hex="00BA"/>
  <outline>
    <contour>
      <point x="500" y="773" type="curve" smooth="yes"/>
      <point x="500" y="1387" type="line" smooth="yes"/>
      <point x="500" y="1413"/>
      <point x="576" y="1417"/>
      <point x="618" y="1417" type="curve" smooth="yes"/>
      <point x="660" y="1417"/>
      <point x="735" y="1413"/>
      <point x="735" y="1387" type="curve" smooth="yes"/>
      <point x="735" y="773" type="line" smooth="yes"/>
      <point x="735" y="749"/>
      <point x="673" y="744"/>
      <point x="618" y="744" type="curve" smooth="yes"/>
      <point x="562" y="744"/>
      <point x="500" y="749"/>
    </contour>
    <contour>
      <point x="619" y="574" type="curve" smooth="yes"/>
      <point x="892" y="576"/>
      <point x="1066" y="616"/>
      <point x="1066" y="923" type="curve" smooth="yes"/>
      <point x="1066" y="1214" type="line" smooth="yes"/>
      <point x="1066" y="1529"/>
      <point x="895" y="1571"/>
      <point x="620" y="1571" type="curve" smooth="yes"/>
      <point x="353" y="1571"/>
      <point x="169" y="1532"/>
      <point x="170" y="1214" type="curve"/>
      <point x="170" y="923" type="line" smooth="yes"/>
      <point x="170" y="619"/>
      <point x="341" y="574"/>
    </contour>
  </outline>
</glyph>
<glyph name="guillemotright" format="1">
  <advance width="1687"/>
  <unicode hex="00BB"/>
  <outline>
    <contour>
      <point x="873" y="216" type="curve" smooth="yes"/>
      <point x="891" y="216"/>
      <point x="912" y="223"/>
      <point x="932" y="238" type="curve" smooth="yes"/>
      <point x="1448" y="622" type="line" smooth="yes"/>
      <point x="1504" y="663"/>
      <point x="1530" y="721"/>
      <point x="1530" y="778" type="curve" smooth="yes"/>
      <point x="1530" y="838"/>
      <point x="1502" y="895"/>
      <point x="1448" y="935" type="curve" smooth="yes"/>
      <point x="932" y="1320" type="line" smooth="yes"/>
      <point x="911.556" y="1334.22"/>
      <point x="894.272" y="1341.33"/>
      <point x="878.041" y="1341.33" type="curve" smooth="yes"/>
      <point x="876.012" y="1341.33"/>
      <point x="874" y="1341.22"/>
      <point x="872" y="1341" type="curve" smooth="yes"/>
      <point x="870.853" y="1341.05"/>
      <point x="869.714" y="1341.08"/>
      <point x="868.583" y="1341.08" type="curve" smooth="yes"/>
      <point x="828.277" y="1341.08"/>
      <point x="798" y="1306.77"/>
      <point x="798" y="1263" type="curve" smooth="yes"/>
      <point x="798" y="1245"/>
      <point x="804" y="1222"/>
      <point x="823" y="1200" type="curve" smooth="yes"/>
      <point x="1190" y="779" type="line"/>
      <point x="823" y="358" type="line" smooth="yes"/>
      <point x="806" y="338"/>
      <point x="799" y="316"/>
      <point x="799" y="295" type="curve" smooth="yes"/>
      <point x="799" y="253"/>
      <point x="831" y="216"/>
    </contour>
    <contour>
      <point x="211" y="216" type="curve" smooth="yes"/>
      <point x="229" y="216"/>
      <point x="249" y="222"/>
      <point x="270" y="238" type="curve" smooth="yes"/>
      <point x="786" y="622" type="line" smooth="yes"/>
      <point x="842" y="663"/>
      <point x="868" y="721"/>
      <point x="868" y="778" type="curve" smooth="yes"/>
      <point x="868" y="838"/>
      <point x="840" y="895"/>
      <point x="786" y="935" type="curve" smooth="yes"/>
      <point x="270" y="1320" type="line" smooth="yes"/>
      <point x="250.444" y="1334.22"/>
      <point x="231.679" y="1341.33"/>
      <point x="215.811" y="1341.33" type="curve" smooth="yes"/>
      <point x="213.827" y="1341.33"/>
      <point x="211.889" y="1341.22"/>
      <point x="210" y="1341" type="curve" smooth="yes"/>
      <point x="208.853" y="1341.05"/>
      <point x="207.714" y="1341.08"/>
      <point x="206.583" y="1341.08" type="curve" smooth="yes"/>
      <point x="166.277" y="1341.08"/>
      <point x="136" y="1306.77"/>
      <point x="136" y="1263" type="curve" smooth="yes"/>
      <point x="136" y="1245"/>
      <point x="142" y="1222"/>
      <point x="160" y="1200" type="curve" smooth="yes"/>
      <point x="528" y="779" type="line"/>
      <point x="160" y="358" type="line" smooth="yes"/>
      <point x="143" y="338"/>
      <point x="137" y="316"/>
      <point x="137" y="295" type="curve" smooth="yes"/>
      <point x="137" y="253"/>
      <point x="169" y="216"/>
    </contour>
  </outline>
</glyph>
<glyph name="onequarter" format="1">
  <advance width="2492"/>
  <unicode hex="00BC"/>
  <outline>
    <contour>
      <point x="723" y="0" type="line"/>
      <point x="980" y="0" type="line"/>
      <point x="1526" y="1566" type="line"/>
      <point x="1176" y="1566" type="line"/>
    </contour>
    <contour>
      <point x="239" y="511" type="line"/>
      <point x="545" y="511" type="line"/>
      <point x="545" y="1551" type="line"/>
      <point x="317" y="1551" type="line"/>
      <point x="260" y="1516"/>
      <point x="185" y="1496"/>
      <point x="95" y="1496" type="curve"/>
      <point x="95" y="1360" type="line"/>
      <point x="239" y="1360" type="line"/>
    </contour>
    <contour>
      <point x="2066" y="0" type="line"/>
      <point x="2353" y="0" type="line"/>
      <point x="2353" y="655" type="line"/>
      <point x="2066" y="655" type="line"/>
      <point x="2066" y="403" type="line"/>
      <point x="1831" y="403" type="line"/>
      <point x="1831" y="430" type="line"/>
      <point x="2072" y="1067" type="line"/>
      <point x="1775" y="1067" type="line"/>
      <point x="1521" y="425" type="line"/>
      <point x="1521" y="199" type="line"/>
      <point x="2066" y="199" type="line"/>
    </contour>
  </outline>
</glyph>
<glyph name="threequarters" format="1">
  <advance width="2760"/>
  <unicode hex="00BE"/>
  <outline>
    <contour>
      <point x="571" y="473" type="curve" smooth="yes"/>
      <point x="867" y="473"/>
      <point x="986" y="555"/>
      <point x="986" y="801" type="curve" smooth="yes"/>
      <point x="986" y="909"/>
      <point x="957" y="999"/>
      <point x="863" y="1031" type="curve"/>
      <point x="950" y="1063"/>
      <point x="984" y="1135"/>
      <point x="984" y="1243" type="curve" smooth="yes"/>
      <point x="984" y="1490"/>
      <point x="873" y="1567"/>
      <point x="570" y="1567" type="curve" smooth="yes"/>
      <point x="265" y="1567"/>
      <point x="152" y="1484"/>
      <point x="152" y="1221" type="curve" smooth="yes"/>
      <point x="152" y="1178" type="line"/>
      <point x="446" y="1178" type="line"/>
      <point x="446" y="1327" type="line"/>
      <point x="448" y="1397"/>
      <point x="492" y="1406"/>
      <point x="569" y="1406" type="curve" smooth="yes"/>
      <point x="647" y="1406"/>
      <point x="690" y="1392"/>
      <point x="690" y="1336" type="curve" smooth="yes"/>
      <point x="690" y="1322.91"/>
      <point x="690.235" y="1302.35"/>
      <point x="690.235" y="1278.72" type="curve" smooth="yes"/>
      <point x="690.235" y="1204.88"/>
      <point x="687.939" y="1101"/>
      <point x="669" y="1101" type="curve" smooth="yes"/>
      <point x="458" y="1101" type="line"/>
      <point x="458" y="965" type="line"/>
      <point x="669" y="965" type="line" smooth="yes"/>
      <point x="689.167" y="965"/>
      <point x="690.007" y="796.104"/>
      <point x="690.007" y="733.293" type="curve" smooth="yes"/>
      <point x="690.007" y="727.583"/>
      <point x="690" y="722.75"/>
      <point x="690" y="719" type="curve" smooth="yes"/>
      <point x="690" y="660"/>
      <point x="644" y="640"/>
      <point x="575" y="640" type="curve" smooth="yes"/>
      <point x="479" y="640"/>
      <point x="444" y="661"/>
      <point x="445" y="724" type="curve" smooth="yes"/>
      <point x="446" y="885" type="line"/>
      <point x="152" y="885" type="line"/>
      <point x="152" y="833" type="line" smooth="yes"/>
      <point x="152" y="583"/>
      <point x="260" y="473"/>
    </contour>
    <contour>
      <point x="1039" y="0" type="line"/>
      <point x="1296" y="0" type="line"/>
      <point x="1842" y="1566" type="line"/>
      <point x="1492" y="1566" type="line"/>
    </contour>
    <contour>
      <point x="2334" y="0" type="line"/>
      <point x="2621" y="0" type="line"/>
      <point x="2621" y="655" type="line"/>
      <point x="2334" y="655" type="line"/>
      <point x="2334" y="403" type="line"/>
      <point x="2099" y="403" type="line"/>
      <point x="2099" y="430" type="line"/>
      <point x="2339" y="1067" type="line"/>
      <point x="2043" y="1067" type="line"/>
      <point x="1789" y="425" type="line"/>
      <point x="1789" y="199" type="line"/>
      <point x="2334" y="199" type="line"/>
    </contour>
  </outline>
</glyph>
<glyph name="Oslash" format="1">
  <advance width="1735"/>
  <unicode hex="00D8"/>
  <outline>
    <component base="O"/>
    <contour>
      <point x="852" y="1595" type="move" name="top"/>
    </contour>
    <contour>
      <point x="292" y="-156" type="line"/>
      <point x="479" y="143" type="line"/>
      <point x="363" y="222" type="line"/>
      <point x="173" y="-82" type="line"/>
    </contour>
    <contour>
      <point x="1224" y="1315" type="line"/>
      <point x="1453" y="1676" type="line"/>
      <point x="1330" y="1748" type="line"/>
      <point x="1096" y="1379" type="line"/>
    </contour>
  </outline>
</glyph>
<glyph name="oslash" format="1">
  <advance width="1631"/>
  <unicode hex="00F8"/>
  <outline>
    <component base="o"/>
    <contour>
      <point x="720" y="1223" type="move" name="top"/>
    </contour>
    <contour>
      <point x="155" y="-19" type="line"/>
      <point x="1338" y="1186" type="line"/>
      <point x="1280" y="1244" type="line"/>
      <point x="97" y="39" type="line"/>
    </contour>
  </outline>
</glyph>
<glyph name="dotlessi" format="1">
  <advance width="784"/>
  <unicode hex="0131"/>
  <outline>
    <contour>
      <point x="419" y="0" type="move" name="ogonek"/>
    </contour>
    <contour>
      <point x="389" y="1215" type="move" name="top"/>
    </contour>
    <contour>
      <point x="192" y="1215" type="line"/>
      <point x="192" y="0" type="line"/>
      <point x="605" y="0" type="line"/>
      <point x="605" y="1215" type="line"/>
    </contour>
  </outline>
</glyph>
<glyph name="Lslash" format="1">
  <advance width="1148"/>
  <unicode hex="0141"/>
  <outline>
    <component base="L"/>
    <contour>
      <point x="41" y="575" type="line"/>
      <point x="863" y="922" type="line"/>
      <point x="863" y="1199" type="line"/>
      <point x="41" y="853" type="line"/>
    </contour>
  </outline>
</glyph>
<glyph name="eng" format="1">
  <advance width="1444"/>
  <unicode hex="014B"/>
  <outline>
    <contour>
      <point x="616" y="-479" type="line"/>
      <point x="1099" y="-479"/>
      <point x="1284" y="-348"/>
      <point x="1285" y="53" type="curve"/>
      <point x="1285" y="803" type="line" smooth="yes"/>
      <point x="1285" y="1102"/>
      <point x="1185" y="1243"/>
      <point x="897" y="1243" type="curve" smooth="yes"/>
      <point x="749" y="1243"/>
      <point x="612" y="1195"/>
      <point x="562" y="1098" type="curve"/>
      <point x="533" y="1215" type="line"/>
      <point x="161" y="1215" type="line"/>
      <point x="161" y="0" type="line"/>
      <point x="575" y="0" type="line"/>
      <point x="575" y="969" type="line" smooth="yes"/>
      <point x="575" y="1029"/>
      <point x="640" y="1057"/>
      <point x="748" y="1057" type="curve" smooth="yes"/>
      <point x="818" y="1057"/>
      <point x="871" y="1049"/>
      <point x="871" y="920" type="curve" smooth="yes"/>
      <point x="871" y="-146" type="line"/>
      <point x="845" y="-204"/>
      <point x="785" y="-236"/>
      <point x="602" y="-236" type="curve"/>
    </contour>
  </outline>
</glyph>
<glyph name="OE" format="1">
  <advance width="1969"/>
  <unicode hex="0152"/>
  <outline>
    <contour>
      <point x="984" y="1551" type="move" name="top"/>
    </contour>
    <contour>
      <point x="744" y="-1" type="curve" smooth="yes"/>
      <point x="1862" y="0" type="line"/>
      <point x="1871" y="206" type="line"/>
      <point x="1394" y="206" type="line"/>
      <point x="1394" y="704" type="line"/>
      <point x="1813" y="704" type="line"/>
      <point x="1813" y="917" type="line"/>
      <point x="1394" y="917" type="line"/>
      <point x="1394" y="1346" type="line"/>
      <point x="1867" y="1346" type="line"/>
      <point x="1859" y="1551" type="line"/>
      <point x="744" y="1551" type="line" smooth="yes"/>
      <point x="315" y="1551"/>
      <point x="136" y="1470"/>
      <point x="136" y="1053" type="curve" smooth="yes"/>
      <point x="136" y="1041"/>
      <point x="136" y="533"/>
      <point x="136" y="522" type="curve" smooth="yes"/>
      <point x="137" y="80"/>
      <point x="290" y="-1"/>
    </contour>
    <contour>
      <point x="752" y="199" type="line"/>
      <point x="649" y="199"/>
      <point x="578" y="212"/>
      <point x="567" y="288" type="curve" smooth="yes"/>
      <point x="560" y="342"/>
      <point x="558" y="1110"/>
      <point x="563" y="1251" type="curve" smooth="yes"/>
      <point x="565" y="1334"/>
      <point x="611" y="1352"/>
      <point x="752" y="1352" type="curve" smooth="yes"/>
      <point x="942" y="1352" type="line"/>
      <point x="942" y="199" type="line"/>
    </contour>
  </outline>
</glyph>
<glyph name="circumflex" format="1">
  <advance width="1101"/>
  <unicode hex="02C6"/>
  <outline>
    <contour>
      <point x="625" y="1215" type="move" name="_top"/>
    </contour>
    <contour>
      <point x="942.108" y="1360.12" type="curve" smooth="yes"/>
      <point x="971.236" y="1360.12"/>
      <point x="995.685" y="1382.12"/>
      <point x="995.685" y="1411.9" type="curve" smooth="yes"/>
      <point x="995.685" y="1424.98"/>
      <point x="991.363" y="1439.49"/>
      <point x="982" y="1454" type="curve" smooth="yes"/>
      <point x="749" y="1821" type="line"/>
      <point x="719" y="1866"/>
      <point x="674" y="1884"/>
      <point x="628" y="1884" type="curve" smooth="yes"/>
      <point x="581" y="1884"/>
      <point x="534" y="1865"/>
      <point x="506" y="1821" type="curve" smooth="yes"/>
      <point x="272" y="1454" type="line" smooth="yes"/>
      <point x="263.348" y="1439.43"/>
      <point x="259.258" y="1425.27"/>
      <point x="259.258" y="1412.57" type="curve" smooth="yes"/>
      <point x="259.258" y="1382.72"/>
      <point x="283.623" y="1361.24"/>
      <point x="313.988" y="1361.24" type="curve" smooth="yes"/>
      <point x="327.785" y="1361.24"/>
      <point x="342.341" y="1365.78"/>
      <point x="355" y="1376" type="curve" smooth="yes"/>
      <point x="627" y="1612" type="line"/>
      <point x="900" y="1376" type="line" smooth="yes"/>
      <point x="913.336" y="1365.13"/>
      <point x="928.135" y="1360.12"/>
    </contour>
  </outline>
</glyph>
<glyph name="caron" format="1">
  <advance width="1101"/>
  <unicode hex="02C7"/>
  <outline>
    <contour>
      <point x="625" y="1215" type="move" name="_top"/>
    </contour>
    <contour>
      <point x="314.498" y="1877.15" type="curve" smooth="yes"/>
      <point x="283.752" y="1877.15"/>
      <point x="259.593" y="1855.34"/>
      <point x="259.593" y="1824.81" type="curve" smooth="yes"/>
      <point x="259.593" y="1812.27"/>
      <point x="263.489" y="1798.33"/>
      <point x="272" y="1784" type="curve" smooth="yes"/>
      <point x="506" y="1417" type="line" smooth="yes"/>
      <point x="534" y="1373"/>
      <point x="581" y="1354"/>
      <point x="628" y="1354" type="curve" smooth="yes"/>
      <point x="674" y="1354"/>
      <point x="719" y="1372"/>
      <point x="749" y="1417" type="curve"/>
      <point x="982" y="1784" type="line" smooth="yes"/>
      <point x="991.363" y="1798.51"/>
      <point x="995.685" y="1813.02"/>
      <point x="995.685" y="1826.1" type="curve" smooth="yes"/>
      <point x="995.685" y="1855.88"/>
      <point x="971.661" y="1877.88"/>
      <point x="942.099" y="1877.88" type="curve" smooth="yes"/>
      <point x="927.879" y="1877.88"/>
      <point x="912.842" y="1872.87"/>
      <point x="900" y="1862" type="curve" smooth="yes"/>
      <point x="627" y="1626" type="line"/>
      <point x="355" y="1862" type="line" smooth="yes"/>
      <point x="342.497" y="1872.58"/>
      <point x="328.144" y="1877.15"/>
    </contour>
  </outline>
</glyph>
<glyph name="ogonek" format="1">
  <advance width="923"/>
  <unicode hex="02DB"/>
  <outline>
    <contour>
      <point x="561" y="0" type="move" name="_ogonek"/>
    </contour>
    <contour>
      <point x="499" y="0" type="line"/>
      <point x="326" y="-115"/>
      <point x="278" y="-235"/>
      <point x="278" y="-328" type="curve" smooth="yes"/>
      <point x="278" y="-468"/>
      <point x="414" y="-557"/>
      <point x="585" y="-557" type="curve" smooth="yes"/>
      <point x="653" y="-557"/>
      <point x="718" y="-539"/>
      <point x="762" y="-516" type="curve"/>
      <point x="730" y="-357" type="line"/>
      <point x="704" y="-364"/>
      <point x="677" y="-369"/>
      <point x="650" y="-369" type="curve" smooth="yes"/>
      <point x="573" y="-369"/>
      <point x="503" y="-332"/>
      <point x="503" y="-240" type="curve" smooth="yes"/>
      <point x="503" y="-165"/>
      <point x="547" y="-72"/>
      <point x="638" y="0" type="curve"/>
    </contour>
  </outline>
</glyph>
<glyph name="dblgravecmb" format="1">
  <advance width="1504"/>
  <unicode hex="030F"/>
  <outline>
    <contour>
      <point x="1077" y="1215" type="move" name="_top"/>
    </contour>
    <contour>
      <point x="1461.38" y="1352.19" type="curve" smooth="yes"/>
      <point x="1484.69" y="1352.19"/>
      <point x="1505.8" y="1362.22"/>
      <point x="1505.8" y="1385.37" type="curve" smooth="yes"/>
      <point x="1505.8" y="1397.81"/>
      <point x="1499.94" y="1412.87"/>
      <point x="1486" y="1425" type="curve" smooth="yes"/>
      <point x="1392" y="1511"/>
      <point x="1161" y="1742"/>
      <point x="1087" y="1789" type="curve" smooth="yes"/>
      <point x="1051" y="1812"/>
      <point x="1015" y="1825"/>
      <point x="979" y="1825" type="curve" smooth="yes"/>
      <point x="892" y="1825"/>
      <point x="835" y="1756"/>
      <point x="835" y="1680" type="curve" smooth="yes"/>
      <point x="835" y="1626"/>
      <point x="864" y="1567"/>
      <point x="932" y="1531" type="curve" smooth="yes"/>
      <point x="1003" y="1491"/>
      <point x="1324" y="1391"/>
      <point x="1444" y="1355" type="curve" smooth="yes"/>
      <point x="1449.55" y="1353.06"/>
      <point x="1455.49" y="1352.19"/>
    </contour>
    <contour>
      <point x="874.974" y="1352.17" type="curve" smooth="yes"/>
      <point x="898.995" y="1352.17"/>
      <point x="919.955" y="1362.53"/>
      <point x="919.955" y="1386.04" type="curve" smooth="yes"/>
      <point x="919.955" y="1398.25"/>
      <point x="914.354" y="1412.81"/>
      <point x="901" y="1425" type="curve" smooth="yes"/>
      <point x="806" y="1511"/>
      <point x="576" y="1742"/>
      <point x="501" y="1789" type="curve" smooth="yes"/>
      <point x="465" y="1812"/>
      <point x="429" y="1825"/>
      <point x="394" y="1825" type="curve" smooth="yes"/>
      <point x="306" y="1825"/>
      <point x="249" y="1756"/>
      <point x="249" y="1680" type="curve" smooth="yes"/>
      <point x="249" y="1626"/>
      <point x="279" y="1567"/>
      <point x="346" y="1531" type="curve" smooth="yes"/>
      <point x="417" y="1491"/>
      <point x="739" y="1391"/>
      <point x="858" y="1355" type="curve" smooth="yes"/>
      <point x="863.339" y="1353.03"/>
      <point x="869.153" y="1352.17"/>
    </contour>
  </outline>
</glyph>
<glyph name="breveinvertedcomb" format="1">
  <advance width="1149"/>
  <unicode hex="0311"/>
  <outline>
    <contour>
      <point x="665" y="1215" type="move" name="_top"/>
    </contour>
    <contour>
      <point x="272" y="1371" type="curve"/>
      <point x="504" y="1371" type="line"/>
      <point x="504" y="1492"/>
      <point x="553" y="1547"/>
      <point x="660" y="1547" type="curve" smooth="yes"/>
      <point x="767" y="1547"/>
      <point x="817" y="1492"/>
      <point x="817" y="1371" type="curve"/>
      <point x="1048" y="1371" type="line"/>
      <point x="1048" y="1632"/>
      <point x="926" y="1753"/>
      <point x="660" y="1753" type="curve" smooth="yes"/>
      <point x="394" y="1753"/>
      <point x="272" y="1632"/>
    </contour>
  </outline>
</glyph>
<glyph name="commaturnedabovecomb" format="1">
  <advance width="839"/>
  <unicode hex="0312"/>
  <outline>
    <contour>
      <point x="465" y="1215" type="move" name="_top"/>
    </contour>
    <contour>
      <point x="466" y="1356" type="curve" smooth="yes"/>
      <point x="566" y="1356"/>
      <point x="650" y="1436"/>
      <point x="650" y="1538" type="curve" smooth="yes"/>
      <point x="650" y="1658"/>
      <point x="580" y="1722"/>
      <point x="486" y="1730" type="curve"/>
      <point x="490" y="1813"/>
      <point x="552" y="1868"/>
      <point x="631" y="1870" type="curve"/>
      <point x="631" y="1959" type="line"/>
      <point x="435" y="1959"/>
      <point x="272" y="1784"/>
      <point x="272" y="1586" type="curve" smooth="yes"/>
      <point x="272" y="1456"/>
      <point x="339" y="1356"/>
    </contour>
  </outline>
</glyph>
<glyph name="Delta" format="1">
  <advance width="1476"/>
  <unicode hex="0394"/>
  <outline>
    <contour>
      <point x="88" y="0" type="line"/>
      <point x="1413" y="0" type="line"/>
      <point x="839" y="1550" type="line"/>
      <point x="644" y="1550" type="line"/>
    </contour>
    <contour>
      <point x="280" y="202" type="line"/>
      <point x="676" y="1347" type="line"/>
      <point x="1074" y="202" type="line"/>
    </contour>
  </outline>
</glyph>
<glyph name="Omega" format="1">
  <advance width="1848"/>
  <unicode hex="03A9"/>
  <outline>
    <contour>
      <point x="105" y="0" type="line"/>
      <point x="836" y="0" type="line"/>
      <point x="841" y="205" type="line"/>
      <point x="574" y="357"/>
      <point x="454" y="548"/>
      <point x="454" y="824" type="curve" smooth="yes"/>
      <point x="454" y="1152"/>
      <point x="657" y="1304"/>
      <point x="924" y="1304" type="curve" smooth="yes"/>
      <point x="1192" y="1304"/>
      <point x="1394" y="1152"/>
      <point x="1394" y="824" type="curve" smooth="yes"/>
      <point x="1394" y="548"/>
      <point x="1281" y="357"/>
      <point x="1008" y="205" type="curve"/>
      <point x="1013" y="0" type="line"/>
      <point x="1744" y="0" type="line"/>
      <point x="1744" y="214" type="line"/>
      <point x="1308" y="214" type="line"/>
      <point x="1573" y="342"/>
      <point x="1717" y="546"/>
      <point x="1717" y="830" type="curve" smooth="yes"/>
      <point x="1717" y="1329"/>
      <point x="1351" y="1562"/>
      <point x="924" y="1562" type="curve" smooth="yes"/>
      <point x="497" y="1562"/>
      <point x="132" y="1329"/>
      <point x="132" y="830" type="curve" smooth="yes"/>
      <point x="132" y="546"/>
      <point x="275" y="342"/>
      <point x="540" y="214" type="curve"/>
      <point x="105" y="214" type="line"/>
    </contour>
  </outline>
</glyph>
<glyph name="pi" format="1">
  <advance width="1636"/>
  <unicode hex="03C0"/>
  <outline>
    <contour>
      <point x="935.874" y="342.172" type="curve" smooth="yes"/>
      <point x="935.874" y="90.1185"/>
      <point x="1109.3" y="-30"/>
      <point x="1293" y="-30" type="curve" smooth="yes"/>
      <point x="1369" y="-30"/>
      <point x="1460" y="-6"/>
      <point x="1543" y="53" type="curve"/>
      <point x="1543" y="197" type="line"/>
      <point x="1498.98" y="183.523"/>
      <point x="1449.3" y="175.697"/>
      <point x="1409.93" y="175.697" type="curve" smooth="yes"/>
      <point x="1290.67" y="175.697"/>
      <point x="1224.4" y="259.557"/>
      <point x="1224.4" y="450.896" type="curve" smooth="yes"/>
      <point x="1224.4" y="589.603"/>
      <point x="1250.97" y="745.07"/>
      <point x="1308" y="964" type="curve"/>
      <point x="1529" y="964" type="line"/>
      <point x="1538" y="1215" type="line"/>
      <point x="509" y="1215" type="line" smooth="yes"/>
      <point x="232" y="1215"/>
      <point x="109" y="1063"/>
      <point x="109" y="811" type="curve"/>
      <point x="252" y="811" type="line"/>
      <point x="265" y="899"/>
      <point x="311" y="964"/>
      <point x="403" y="964" type="curve" smooth="yes"/>
      <point x="507" y="964" type="line"/>
      <point x="408" y="431" type="line" smooth="yes"/>
      <point x="367" y="211"/>
      <point x="264" y="187"/>
      <point x="163" y="187" type="curve"/>
      <point x="163" y="0" type="line"/>
      <point x="564" y="0"/>
      <point x="672" y="102"/>
      <point x="695" y="357" type="curve" smooth="yes"/>
      <point x="751" y="964" type="line"/>
      <point x="1097" y="964" type="line"/>
      <point x="1025.54" y="775.072"/>
      <point x="935.874" y="561.23"/>
    </contour>
  </outline>
</glyph>
<glyph name="quotedblright" format="1">
  <advance width="1192"/>
  <unicode hex="201D"/>
  <outline>
    <contour>
      <point x="677" y="994" type="line"/>
      <point x="910" y="994"/>
      <point x="1030" y="1174"/>
      <point x="1030" y="1373" type="curve" smooth="yes"/>
      <point x="1030" y="1497"/>
      <point x="970" y="1597"/>
      <point x="852" y="1597" type="curve" smooth="yes"/>
      <point x="745" y="1597"/>
      <point x="666" y="1524"/>
      <point x="666" y="1425" type="curve" smooth="yes"/>
      <point x="666" y="1308"/>
      <point x="734" y="1246"/>
      <point x="825" y="1240" type="curve"/>
      <point x="822" y="1151"/>
      <point x="760" y="1087"/>
      <point x="677" y="1086" type="curve"/>
    </contour>
    <contour>
      <point x="184" y="994" type="line"/>
      <point x="417" y="994"/>
      <point x="538" y="1174"/>
      <point x="538" y="1373" type="curve" smooth="yes"/>
      <point x="538" y="1496"/>
      <point x="476" y="1597"/>
      <point x="358" y="1597" type="curve" smooth="yes"/>
      <point x="253" y="1597"/>
      <point x="173" y="1526"/>
      <point x="173" y="1425" type="curve" smooth="yes"/>
      <point x="173" y="1308"/>
      <point x="241" y="1246"/>
      <point x="332" y="1240" type="curve"/>
      <point x="329" y="1152"/>
      <point x="267" y="1087"/>
      <point x="184" y="1086" type="curve"/>
    </contour>
  </outline>
</glyph>
<glyph name="quotedblbase" format="1">
  <advance width="1065"/>
  <unicode hex="201E"/>
  <outline>
    <contour>
      <point x="772" y="-319" type="curve" smooth="yes"/>
      <point x="798" y="-209"/>
      <point x="883" y="97"/>
      <point x="883" y="195" type="curve" smooth="yes"/>
      <point x="883" y="296"/>
      <point x="813" y="349"/>
      <point x="734" y="349" type="curve" smooth="yes"/>
      <point x="648" y="349"/>
      <point x="589" y="299"/>
      <point x="589" y="190" type="curve" smooth="yes"/>
      <point x="589" y="95"/>
      <point x="672" y="-204"/>
      <point x="698" y="-316" type="curve" smooth="yes"/>
      <point x="704" y="-340"/>
      <point x="722" y="-352"/>
      <point x="735" y="-352" type="curve" smooth="yes"/>
      <point x="748" y="-352"/>
      <point x="767" y="-342"/>
    </contour>
    <contour>
      <point x="365" y="-319" type="curve" smooth="yes"/>
      <point x="391" y="-209"/>
      <point x="475" y="97"/>
      <point x="475" y="195" type="curve" smooth="yes"/>
      <point x="475" y="296"/>
      <point x="406" y="349"/>
      <point x="326" y="349" type="curve" smooth="yes"/>
      <point x="241" y="349"/>
      <point x="182" y="299"/>
      <point x="182" y="190" type="curve" smooth="yes"/>
      <point x="182" y="95"/>
      <point x="264" y="-204"/>
      <point x="290" y="-316" type="curve" smooth="yes"/>
      <point x="297" y="-340"/>
      <point x="315" y="-352"/>
      <point x="328" y="-352" type="curve" smooth="yes"/>
      <point x="340" y="-352"/>
      <point x="359" y="-342"/>
    </contour>
  </outline>
</glyph>
<glyph name="dagger" format="1">
  <advance width="1303"/>
  <unicode hex="2020"/>
  <outline>
    <contour>
      <point x="647" y="6" type="curve" smooth="yes"/>
      <point x="731" y="6"/>
      <point x="801" y="68"/>
      <point x="801" y="190" type="curve" smooth="yes"/>
      <point x="801" y="332"/>
      <point x="760" y="563"/>
      <point x="702" y="978" type="curve"/>
      <point x="815" y="935"/>
      <point x="921" y="894"/>
      <point x="990" y="894" type="curve" smooth="yes"/>
      <point x="1066" y="894"/>
      <point x="1108" y="949"/>
      <point x="1108" y="1016" type="curve" smooth="yes"/>
      <point x="1108" y="1091"/>
      <point x="1071" y="1151"/>
      <point x="997" y="1151" type="curve" smooth="yes"/>
      <point x="922" y="1151"/>
      <point x="812" y="1107"/>
      <point x="696" y="1063" type="curve"/>
      <point x="751" y="1222"/>
      <point x="799" y="1352"/>
      <point x="799" y="1429" type="curve" smooth="yes"/>
      <point x="799" y="1545"/>
      <point x="728" y="1596"/>
      <point x="647" y="1596" type="curve" smooth="yes"/>
      <point x="573" y="1596"/>
      <point x="498" y="1547"/>
      <point x="498" y="1432" type="curve" smooth="yes"/>
      <point x="498" y="1350"/>
      <point x="542" y="1221"/>
      <point x="597" y="1067" type="curve"/>
      <point x="472" y="1115"/>
      <point x="389" y="1151"/>
      <point x="300" y="1151" type="curve" smooth="yes"/>
      <point x="232" y="1151"/>
      <point x="194" y="1088"/>
      <point x="194" y="1021" type="curve" smooth="yes"/>
      <point x="194" y="950"/>
      <point x="233" y="894"/>
      <point x="312" y="894" type="curve" smooth="yes"/>
      <point x="389" y="894"/>
      <point x="524" y="949"/>
      <point x="592" y="976" type="curve"/>
      <point x="542" y="616"/>
      <point x="497" y="361"/>
      <point x="497" y="189" type="curve" smooth="yes"/>
      <point x="497" y="69"/>
      <point x="562" y="6"/>
    </contour>
  </outline>
</glyph>
<glyph name="bullet" format="1">
  <advance width="1186"/>
  <unicode hex="2022"/>
  <outline>
    <contour>
      <point x="602" y="238" type="curve" smooth="yes"/>
      <point x="907" y="238"/>
      <point x="1019" y="432"/>
      <point x="1019" y="700" type="curve" smooth="yes"/>
      <point x="1019" y="984"/>
      <point x="894" y="1160"/>
      <point x="604" y="1160" type="curve" smooth="yes"/>
      <point x="298" y="1160"/>
      <point x="163" y="997"/>
      <point x="163" y="699" type="curve" smooth="yes"/>
      <point x="163" y="419"/>
      <point x="280" y="238"/>
    </contour>
  </outline>
</glyph>
<glyph name="guilsinglright" format="1">
  <advance width="1043"/>
  <unicode hex="203A"/>
  <outline>
    <contour>
      <point x="227" y="216" type="curve" smooth="yes"/>
      <point x="245" y="216"/>
      <point x="266" y="222"/>
      <point x="286" y="238" type="curve" smooth="yes"/>
      <point x="802" y="622" type="line" smooth="yes"/>
      <point x="858" y="663"/>
      <point x="884" y="721"/>
      <point x="884" y="778" type="curve" smooth="yes"/>
      <point x="884" y="838"/>
      <point x="856" y="895"/>
      <point x="802" y="935" type="curve" smooth="yes"/>
      <point x="286" y="1320" type="line" smooth="yes"/>
      <point x="266.444" y="1334.22"/>
      <point x="247.679" y="1341.33"/>
      <point x="231.811" y="1341.33" type="curve" smooth="yes"/>
      <point x="229.827" y="1341.33"/>
      <point x="227.889" y="1341.22"/>
      <point x="226" y="1341" type="curve" smooth="yes"/>
      <point x="224.853" y="1341.05"/>
      <point x="223.714" y="1341.08"/>
      <point x="222.583" y="1341.08" type="curve" smooth="yes"/>
      <point x="182.277" y="1341.08"/>
      <point x="152" y="1306.77"/>
      <point x="152" y="1263" type="curve" smooth="yes"/>
      <point x="152" y="1245"/>
      <point x="158" y="1222"/>
      <point x="177" y="1200" type="curve" smooth="yes"/>
      <point x="544" y="779" type="line"/>
      <point x="177" y="358" type="line" smooth="yes"/>
      <point x="160" y="338"/>
      <point x="153" y="316"/>
      <point x="153" y="295" type="curve" smooth="yes"/>
      <point x="153" y="253"/>
      <point x="185" y="216"/>
    </contour>
  </outline>
</glyph>
<glyph name="foursuperior" format="1">
  <advance width="1217"/>
  <unicode hex="2074"/>
  <outline>
    <contour>
      <point x="747" y="484" type="line"/>
      <point x="1034" y="484" type="line"/>
      <point x="1034" y="1139" type="line"/>
      <point x="747" y="1139" type="line"/>
      <point x="747" y="887" type="line"/>
      <point x="512" y="887" type="line"/>
      <point x="512" y="914" type="line"/>
      <point x="753" y="1551" type="line"/>
      <point x="456" y="1551" type="line"/>
      <point x="202" y="908" type="line"/>
      <point x="202" y="683" type="line"/>
      <point x="747" y="683" type="line"/>
    </contour>
  </outline>
</glyph>
<glyph name="uni2113" format="1">
  <advance width="1265"/>
  <unicode hex="2113"/>
  <outline>
    <contour>
      <point x="888.003" y="1587.06" type="curve" smooth="yes"/>
      <point x="999.42" y="1587.06"/>
      <point x="1037.97" y="1520.28"/>
      <point x="1037.97" y="1408.11" type="curve" smooth="yes"/>
      <point x="1037.97" y="1169.55"/>
      <point x="795.203" y="1009.57"/>
      <point x="687" y="939" type="curve"/>
      <point x="687" y="1254" type="line" smooth="yes"/>
      <point x="687" y="1501.96"/>
      <point x="759.208" y="1587.06"/>
    </contour>
    <contour>
      <point x="286" y="309" type="line" smooth="yes"/>
      <point x="286" y="21.84"/>
      <point x="446.575" y="-21.3067"/>
      <point x="750.37" y="-21.3067" type="curve" smooth="yes"/>
      <point x="848.821" y="-21.3067"/>
      <point x="989.07" y="-4"/>
      <point x="990" y="-4" type="curve" smooth="yes"/>
      <point x="990" y="187" type="line"/>
      <point x="975.961" y="186.583"/>
      <point x="962.676" y="186.379"/>
      <point x="950.098" y="186.379" type="curve" smooth="yes"/>
      <point x="872.189" y="186.379"/>
      <point x="821.44" y="194.224"/>
      <point x="787" y="208" type="curve"/>
      <point x="699" y="224"/>
      <point x="688" y="267"/>
      <point x="688" y="328" type="curve" smooth="yes"/>
      <point x="688" y="748" type="line"/>
      <point x="1036.74" y="957.792"/>
      <point x="1248.57" y="1172.53"/>
      <point x="1248.57" y="1422.19" type="curve" smooth="yes"/>
      <point x="1248.57" y="1665.17"/>
      <point x="1066.28" y="1792.01"/>
      <point x="849.783" y="1792.01" type="curve" smooth="yes"/>
      <point x="583.614" y="1792.01"/>
      <point x="286" y="1610.17"/>
      <point x="286" y="1158" type="curve" smooth="yes"/>
      <point x="286" y="694" type="line"/>
      <point x="119" y="575" type="line"/>
      <point x="119" y="397" type="line"/>
      <point x="286" y="524" type="line"/>
    </contour>
  </outline>
</glyph>
<glyph name="summation" format="1">
  <advance width="1371"/>
  <unicode hex="2211"/>
  <outline>
    <contour>
      <point x="170" y="-8" type="line"/>
      <point x="1247" y="-8" type="line"/>
      <point x="1247" y="240" type="line"/>
      <point x="606" y="240" type="line"/>
      <point x="1044" y="712" type="line"/>
      <point x="1044" y="811" type="line"/>
      <point x="598" y="1314" type="line"/>
      <point x="1219" y="1314" type="line"/>
      <point x="1219" y="1551" type="line"/>
      <point x="170" y="1551" type="line"/>
      <point x="170" y="1312" type="line"/>
      <point x="634" y="793" type="line"/>
      <point x="170" y="258" type="line"/>
    </contour>
  </outline>
</glyph>
<glyph name="uni2215" format="1">
  <advance width="948"/>
  <unicode hex="2215"/>
  <outline>
    <contour>
      <point x="152" y="0" type="line"/>
      <point x="465" y="0" type="line"/>
      <point x="926" y="1537" type="line"/>
      <point x="612" y="1537" type="line"/>
    </contour>
  </outline>
</glyph>
<glyph name="integral" format="1">
  <advance width="1209"/>
  <unicode hex="222B"/>
  <outline>
    <contour>
      <point x="406" y="-304" type="curve" smooth="yes"/>
      <point x="587" y="-304"/>
      <point x="703" y="-255"/>
      <point x="728" y="36" type="curve" smooth="yes"/>
      <point x="841" y="1343" type="line" smooth="yes"/>
      <point x="853" y="1479"/>
      <point x="868" y="1504"/>
      <point x="953" y="1504" type="curve" smooth="yes"/>
      <point x="983" y="1504"/>
      <point x="1024" y="1492"/>
      <point x="1055" y="1475" type="curve"/>
      <point x="1124" y="1623" type="line"/>
      <point x="1080" y="1648"/>
      <point x="997" y="1674"/>
      <point x="941" y="1674" type="curve" smooth="yes"/>
      <point x="760" y="1674"/>
      <point x="645" y="1625"/>
      <point x="620" y="1334" type="curve" smooth="yes"/>
      <point x="506" y="27" type="line" smooth="yes"/>
      <point x="494" y="-109"/>
      <point x="479" y="-134"/>
      <point x="394" y="-134" type="curve" smooth="yes"/>
      <point x="364" y="-134"/>
      <point x="323" y="-123"/>
      <point x="292" y="-105" type="curve"/>
      <point x="223" y="-254" type="line"/>
      <point x="267" y="-278"/>
      <point x="350" y="-304"/>
    </contour>
  </outline>
</glyph>
<glyph name="approxequal" format="1">
  <advance width="1267"/>
  <unicode hex="2248"/>
  <outline>
    <contour>
      <point x="929" y="749" type="curve" smooth="yes"/>
      <point x="938.925" y="748.084"/>
      <point x="948.413" y="747.605"/>
      <point x="957.475" y="747.605" type="curve" smooth="yes"/>
      <point x="1067.1" y="747.605"/>
      <point x="1114.31" y="817.713"/>
      <point x="1118" y="1032" type="curve"/>
      <point x="975" y="1032" type="line"/>
      <point x="970" y="953"/>
      <point x="938" y="927"/>
      <point x="885" y="927" type="curve" smooth="yes"/>
      <point x="778" y="927"/>
      <point x="584" y="1028"/>
      <point x="359" y="1047" type="curve" smooth="yes"/>
      <point x="350.496" y="1047.78"/>
      <point x="342.158" y="1048.19"/>
      <point x="334.003" y="1048.19" type="curve" smooth="yes"/>
      <point x="227.071" y="1048.19"/>
      <point x="151.504" y="978.064"/>
      <point x="145" y="756" type="curve"/>
      <point x="292" y="756" type="line"/>
      <point x="291" y="841"/>
      <point x="325" y="870"/>
      <point x="384" y="870" type="curve" smooth="yes"/>
      <point x="499" y="870"/>
      <point x="743" y="764"/>
    </contour>
    <contour>
      <point x="950" y="347" type="curve" smooth="yes"/>
      <point x="959.921" y="346.084"/>
      <point x="969.398" y="345.605"/>
      <point x="978.445" y="345.605" type="curve" smooth="yes"/>
      <point x="1087.95" y="345.605"/>
      <point x="1134.31" y="415.781"/>
      <point x="1138" y="631" type="curve"/>
      <point x="996" y="631" type="line"/>
      <point x="991" y="552"/>
      <point x="959" y="526"/>
      <point x="906" y="526" type="curve" smooth="yes"/>
      <point x="799" y="526"/>
      <point x="605" y="627"/>
      <point x="380" y="646" type="curve" smooth="yes"/>
      <point x="371.523" y="646.771"/>
      <point x="363.212" y="647.173"/>
      <point x="355.085" y="647.173" type="curve" smooth="yes"/>
      <point x="247.207" y="647.173"/>
      <point x="171.58" y="576.255"/>
      <point x="166" y="354" type="curve"/>
      <point x="313" y="354" type="line"/>
      <point x="312" y="439"/>
      <point x="346" y="468"/>
      <point x="405" y="468" type="curve" smooth="yes"/>
      <point x="520" y="468"/>
      <point x="764" y="362"/>
    </contour>
  </outline>
</glyph>
<glyph name="notequal" format="1">
  <advance width="989"/>
  <unicode hex="2260"/>
  <outline>
    <contour>
      <point x="273" y="174" type="line"/>
      <point x="452" y="174" type="line"/>
      <point x="536" y="414" type="line"/>
      <point x="939" y="414" type="line"/>
      <point x="939" y="603" type="line"/>
      <point x="602" y="603" type="line"/>
      <point x="667" y="792" type="line"/>
      <point x="939" y="792" type="line"/>
      <point x="939" y="981" type="line"/>
      <point x="733" y="981" type="line"/>
      <point x="818" y="1224" type="line"/>
      <point x="640" y="1224" type="line"/>
      <point x="555" y="981" type="line"/>
      <point x="104" y="981" type="line"/>
      <point x="104" y="792" type="line"/>
      <point x="489" y="792" type="line"/>
      <point x="423" y="603" type="line"/>
      <point x="104" y="603" type="line"/>
      <point x="104" y="414" type="line"/>
      <point x="357" y="414" type="line"/>
    </contour>
  </outline>
</glyph>
